<?xml version="1.0" standalone="no"?>
<!DOCTYPE svg PUBLIC "-//W3C//DTD SVG 20010904//EN"
 "http://www.w3.org/TR/2001/REC-SVG-20010904/DTD/svg10.dtd">
<svg version="1.0" xmlns="http://www.w3.org/2000/svg"
 width="400.000000pt" height="400.000000pt" viewBox="0 0 400.000000 400.000000"
 preserveAspectRatio="xMidYMid meet">

<g transform="translate(0.000000,400.000000) scale(0.100000,-0.100000)"
fill="#000000" stroke="none">
<path d="M1815 3503 c-52 -11 -152 -52 -277 -115 -76 -37 -143 -68 -151 -68
-7 0 -28 -11 -47 -23 -19 -13 -52 -27 -74 -30 -46 -7 -76 -32 -76 -62 0 -12
-14 -34 -31 -51 -81 -77 -224 -324 -278 -483 -28 -80 -47 -280 -32 -324 6 -16
11 -46 11 -66 0 -24 7 -42 19 -53 11 -9 26 -36 33 -60 9 -31 34 -65 90 -123
143 -147 178 -189 178 -212 0 -39 20 -77 65 -123 24 -25 51 -64 60 -87 10 -24
23 -43 31 -43 7 0 18 -8 23 -18 11 -20 8 -39 -16 -115 -11 -36 -12 -51 -4 -61
8 -9 10 -36 6 -77 -4 -35 -2 -84 3 -107 10 -44 10 -44 -23 -58 -20 -8 -57 -42
-89 -81 -78 -96 -237 -283 -330 -389 -43 -49 -101 -123 -129 -164 -54 -82
-193 -361 -226 -452 l-21 -58 1010 0 c556 0 1010 2 1010 4 0 3 -21 60 -46 128
-54 142 -66 224 -49 341 10 69 15 81 43 105 37 32 42 70 13 96 -11 10 -17 25
-14 36 7 25 -9 50 -86 142 -50 59 -68 75 -75 65 -7 -11 -28 6 -90 67 -45 45
-148 135 -231 201 -247 196 -279 222 -309 254 -17 17 -38 31 -48 31 -10 0 -17
3 -17 8 4 22 -3 32 -21 32 -10 0 -24 9 -31 21 -8 15 -14 18 -22 10 -20 -20
-89 -9 -117 19 -3 3 -22 13 -42 22 -28 13 -35 21 -31 37 3 11 11 26 19 32 8 6
14 16 14 21 0 14 27 38 43 38 12 0 13 9 6 47 -5 26 -5 51 0 57 5 6 7 20 5 30
-9 56 -6 83 8 106 9 14 23 44 30 68 7 23 18 42 25 42 9 0 8 9 -3 35 -7 19 -14
58 -14 88 0 76 34 116 110 127 30 4 49 8 41 9 -16 1 -5 16 12 16 15 1 37 -20
37 -34 0 -6 5 -11 10 -11 6 0 10 5 10 10 0 6 6 10 13 10 7 0 27 14 44 30 27
27 32 28 35 13 2 -11 11 2 23 35 12 32 22 47 25 38 4 -12 8 -13 24 -1 17 13
17 15 3 21 -26 10 -20 50 13 81 48 46 55 51 122 81 36 16 68 36 71 45 4 10 13
14 28 10 14 -4 20 -2 16 4 -4 6 6 13 23 17 16 3 49 15 72 26 40 19 119 28 117
13 -5 -33 32 -51 52 -26 21 25 66 43 108 43 33 0 43 -5 62 -31 26 -37 32 -36
140 27 107 63 207 157 247 232 54 102 78 262 39 262 -7 0 -127 -39 -267 -86
-140 -47 -263 -88 -272 -91 -12 -3 -32 7 -56 28 -21 19 -112 90 -202 158 -90
69 -188 152 -219 184 -72 76 -112 94 -176 80z"/>
<path d="M2444 2616 c-10 -11 -19 -23 -20 -26 0 -3 -4 -13 -9 -23 -11 -26 0
-31 37 -16 18 7 41 12 51 11 33 -6 87 18 87 38 0 26 -16 33 -76 35 -42 2 -55
-2 -70 -19z"/>
<path d="M2475 2489 c-5 -6 -25 -19 -44 -30 -37 -22 -32 -37 12 -41 15 -1 27
-6 27 -11 0 -4 5 -5 10 -2 6 3 10 16 10 28 0 12 9 28 20 35 11 7 20 17 20 22
0 13 -42 12 -55 -1z"/>
<path d="M1892 2383 c-6 -2 -10 -9 -6 -14 3 -5 0 -9 -5 -9 -17 0 -13 -37 4
-44 8 -3 15 0 15 6 0 7 5 6 15 -2 8 -7 16 -10 16 -6 1 3 2 10 3 15 0 5 4 13 9
17 13 14 8 36 -8 30 -8 -3 -15 -1 -15 4 0 11 -7 11 -28 3z"/>
<path d="M1959 2288 c4 -28 6 -29 9 -9 2 13 0 27 -5 32 -6 6 -7 -3 -4 -23z"/>
<path d="M1656 2238 c9 -31 24 -48 41 -48 11 0 14 -7 10 -21 -7 -26 2 -79 13
-79 19 0 21 60 3 92 -22 41 -54 78 -65 78 -5 0 -6 -10 -2 -22z"/>
<path d="M2769 2231 l-24 -19 33 6 c18 4 33 11 33 17 1 18 -18 16 -42 -4z"/>
<path d="M2760 2172 c0 -7 -3 -11 -7 -10 -15 3 -43 -14 -37 -23 3 -5 -2 -6
-10 -3 -9 3 -16 1 -16 -5 0 -6 5 -11 11 -11 7 0 9 -10 7 -25 -4 -19 -1 -25 12
-25 10 0 23 7 30 15 7 8 16 12 21 9 6 -3 7 13 3 38 -7 42 -14 63 -14 40z"/>
<path d="M1584 2096 c2 -15 9 -33 16 -39 10 -10 11 -6 6 18 -10 40 -25 55 -22
21z"/>
<path d="M1768 2086 c-4 -20 2 -26 46 -45 28 -11 56 -21 61 -21 10 0 -23 30
-76 70 l-27 20 -4 -24z"/>
<path d="M1735 2020 c4 -6 11 -8 16 -5 14 9 11 15 -7 15 -8 0 -12 -5 -9 -10z"/>
<path d="M2720 1967 c-14 -7 -26 -21 -28 -32 -4 -17 -3 -18 13 -2 9 9 22 17
29 17 8 0 19 7 26 15 16 19 -4 20 -40 2z"/>
<path d="M2690 1790 c0 -11 5 -20 11 -20 5 0 8 -3 6 -7 -3 -5 -1 -18 4 -31 7
-17 14 -22 28 -17 11 3 22 1 26 -5 4 -6 16 -8 27 -4 17 5 18 3 9 -15 -7 -12
-16 -21 -22 -21 -6 0 -8 4 -5 9 3 5 -1 11 -9 15 -20 7 -19 6 11 -35 19 -25 24
-28 19 -12 -5 18 -3 22 9 17 12 -5 15 -2 10 10 -3 9 -2 16 4 16 14 0 33 -57
25 -76 -3 -8 -12 -13 -20 -9 -11 3 -13 1 -9 -10 3 -8 1 -15 -4 -15 -6 0 -10 9
-10 21 0 12 -5 19 -12 16 -7 -2 -12 -15 -11 -28 2 -14 0 -18 -4 -9 -3 8 -12
20 -19 27 -17 17 -74 24 -71 9 1 -6 -8 -10 -20 -9 -15 2 -23 -3 -23 -12 0 -18
21 -20 38 -3 7 7 12 8 12 4 0 -5 6 -3 13 3 10 8 14 7 14 -4 0 -8 -8 -17 -17
-20 -32 -10 -101 -12 -106 -3 -3 5 -19 6 -35 3 -18 -4 -29 -3 -29 4 0 11 -40
8 -60 -4 -6 -3 -14 4 -19 17 -8 19 -10 20 -16 7 -7 -18 -44 -15 -56 4 -11 17
-29 -3 -28 -31 1 -17 3 -21 6 -9 5 18 15 22 26 10 4 -3 2 -12 -4 -19 -15 -19
11 -28 54 -20 23 4 28 3 17 -4 -11 -7 -12 -12 -3 -18 8 -5 9 -13 3 -22 -7 -12
-12 -12 -22 -2 -15 15 -28 16 -28 2 0 -5 7 -10 16 -10 10 0 14 -5 10 -15 -3
-8 -9 -22 -13 -32 -4 -11 -3 -14 5 -9 9 5 12 -6 12 -36 0 -66 14 -79 39 -36
23 38 56 56 265 146 103 44 111 50 133 92 21 38 22 45 9 48 -9 2 -16 11 -16
20 0 15 2 15 10 2 8 -12 10 -12 10 5 0 30 -15 47 -36 43 -14 -2 -20 4 -22 25
-3 27 -16 35 -27 18 -15 -26 -85 12 -85 46 0 7 -4 13 -10 13 -5 0 -10 -9 -10
-20z m-190 -301 c0 -5 -7 -6 -15 -3 -8 4 -15 13 -15 21 0 13 3 13 15 3 8 -7
15 -16 15 -21z m-30 -19 c0 -5 -5 -10 -11 -10 -5 0 -7 5 -4 10 3 6 8 10 11 10
2 0 4 -4 4 -10z"/>
<path d="M2645 1740 c-3 -5 -1 -10 4 -10 6 0 11 5 11 10 0 6 -2 10 -4 10 -3 0
-8 -4 -11 -10z"/>
<path d="M2696 1707 c3 -10 9 -15 12 -12 3 3 0 11 -7 18 -10 9 -11 8 -5 -6z"/>
<path d="M2721 1689 c0 -8 6 -24 14 -35 13 -17 14 -17 15 -1 0 9 -4 17 -9 17
-5 0 -12 8 -14 18 -4 13 -5 14 -6 1z"/>
<path d="M2105 1670 c3 -5 14 -10 23 -10 15 0 15 2 2 10 -20 13 -33 13 -25 0z"/>
<path d="M2180 1626 c0 -9 5 -16 10 -16 6 0 10 4 10 9 0 6 -4 13 -10 16 -5 3
-10 -1 -10 -9z"/>
<path d="M2241 1613 c-1 -33 10 -57 19 -42 5 7 22 12 40 11 19 0 33 5 37 15 9
24 -17 33 -38 12 -25 -25 -38 -24 -49 4 l-9 22 0 -22z"/>
<path d="M2590 1610 c0 -5 4 -10 10 -10 5 0 7 -8 4 -17 -5 -17 -5 -17 6 0 11
18 6 37 -11 37 -5 0 -9 -4 -9 -10z"/>
<path d="M2280 1570 c-10 -28 -8 -50 6 -50 8 0 12 -4 9 -10 -11 -18 7 -10 26
11 14 16 15 24 6 34 -10 11 -13 11 -15 -1 -5 -20 -20 -17 -25 4 -3 9 -6 15 -7
12z"/>
<path d="M2240 1540 c0 -5 4 -10 9 -10 6 0 13 5 16 10 3 6 -1 10 -9 10 -9 0
-16 -4 -16 -10z"/>
<path d="M2200 1400 c0 -6 7 -10 15 -10 8 0 15 -9 15 -20 0 -11 4 -20 9 -20
16 0 20 14 8 31 -15 19 -47 32 -47 19z"/>
<path d="M2260 1381 c0 -6 5 -13 10 -16 6 -3 10 1 10 9 0 9 -4 16 -10 16 -5 0
-10 -4 -10 -9z"/>
<path d="M2200 1370 c0 -5 5 -10 11 -10 5 0 7 5 4 10 -3 6 -8 10 -11 10 -2 0
-4 -4 -4 -10z"/>
<path d="M2210 1336 c0 -9 5 -16 10 -16 6 0 10 4 10 9 0 6 -4 13 -10 16 -5 3
-10 -1 -10 -9z"/>
<path d="M2123 1323 c-3 -10 -8 -21 -10 -25 -2 -5 5 -8 16 -8 13 0 21 6 21 18
0 15 -2 15 -11 2 -9 -12 -10 -11 -6 8 6 26 -1 30 -10 5z"/>
<path d="M2171 1220 c0 -8 4 -22 9 -30 12 -18 12 -2 0 25 -6 13 -9 15 -9 5z"/>
<path d="M2150 1170 c0 -5 9 -14 20 -20 11 -6 20 -9 20 -8 0 2 -9 11 -20 21
-11 9 -20 13 -20 7z"/>
<path d="M2207 1143 c-4 -3 -7 -11 -7 -17 0 -6 5 -5 12 2 6 6 9 14 7 17 -3 3
-9 2 -12 -2z"/>
<path d="M2246 1093 c7 -4 14 -17 17 -28 5 -16 5 -15 4 4 -1 14 -9 26 -17 28
-10 3 -11 2 -4 -4z"/>
</g>
</svg>
